<svg width="32" height="32" viewBox="0 0 32 32" fill="none" xmlns="http://www.w3.org/2000/svg">
  <defs>
    <linearGradient id="bgGradient" x1="0%" y1="0%" x2="100%" y2="100%">
      <stop offset="0%" style="stop-color:#1e1b4b;stop-opacity:1" />
      <stop offset="50%" style="stop-color:#312e81;stop-opacity:1" />
      <stop offset="100%" style="stop-color:#4c1d95;stop-opacity:1" />
    </linearGradient>
    <linearGradient id="letterGradient" x1="0%" y1="0%" x2="100%" y2="100%">
      <stop offset="0%" style="stop-color:#a855f7;stop-opacity:1" />
      <stop offset="50%" style="stop-color:#c084fc;stop-opacity:1" />
      <stop offset="100%" style="stop-color:#e879f9;stop-opacity:1" />
    </linearGradient>
  </defs>
  
  <!-- Background with rounded corners -->
  <rect width="32" height="32" rx="8" fill="url(#bgGradient)" stroke="#4c1d95" stroke-width="0.5"/>
  
  <!-- Letter D -->
  <path d="M8 7 L8 25 L16 25 C20.418 25 24 21.418 24 17 L24 15 C24 10.582 20.418 7 16 7 L8 7 Z M11 10 L16 10 C18.761 10 21 12.239 21 15 L21 17 C21 19.761 18.761 22 16 22 L11 22 L11 10 Z" 
        fill="url(#letterGradient)" 
        stroke="#e879f9" 
        stroke-width="0.3"/>
  
  <!-- Subtle inner glow effect -->
  <rect width="30" height="30" x="1" y="1" rx="7" fill="none" stroke="rgba(168, 85, 247, 0.3)" stroke-width="0.5"/>
</svg>